<?xml version="1.0" encoding="utf-8"?>
<!-- Svg Vector Icons : http://www.onlinewebfonts.com/icon -->
<!DOCTYPE svg PUBLIC "-//W3C//DTD SVG 1.1//EN" "http://www.w3.org/Graphics/SVG/1.1/DTD/svg11.dtd">
<svg version="1.1" xmlns="http://www.w3.org/2000/svg" xmlns:xlink="http://www.w3.org/1999/xlink" x="0px" y="0px" viewBox="0 0 1000 1000" enable-background="new 0 0 1000 1000" xml:space="preserve">
<metadata> Svg Vector Icons : http://www.onlinewebfonts.com/icon </metadata>
<g><path d="M500,10C229.4,10,10,229.4,10,500c0,270.6,219.4,490,490,490c270.6,0,490-219.4,490-490C990,229.4,770.6,10,500,10z M760.7,710.8l-43.3,43.3c-23.9,23.9-62.7,23.9-86.6,0L498.4,621.7L365.9,754.3c-23.2,23.2-60.9,23.2-84.1,0l-42.1-42.1c-23.2-23.2-23.2-60.9,0-84.1l132.5-132.5L241,364.3c-23.9-23.9-23.9-62.7,0-86.6l43.3-43.3c23.9-23.9,62.7-23.9,86.6,0l131.3,131.3l116.1-116.1c23.2-23.2,60.9-23.2,84.1,0l42.1,42c23.2,23.2,23.2,60.9,0,84.1L628.3,491.8l132.3,132.3C784.6,648.1,784.6,686.8,760.7,710.8z"/></g>
</svg>